<?xml version="1.0" encoding="UTF-8" standalone="no"?>
<!DOCTYPE svg PUBLIC "-//W3C//DTD SVG 1.1//EN" "http://www.w3.org/Graphics/SVG/1.1/DTD/svg11.dtd">
<svg width="100%" height="100%" viewBox="0 0 3508 4961" version="1.1" xmlns="http://www.w3.org/2000/svg" xmlns:xlink="http://www.w3.org/1999/xlink" xml:space="preserve" xmlns:serif="http://www.serif.com/" style="fill-rule:evenodd;clip-rule:evenodd;stroke-linejoin:round;stroke-miterlimit:2;">
    <g transform="matrix(67.598737,0,0,67.598737,-505849.860605,-194483.21287)">
        <path d="M7521.686,2925.676C7520.059,2928.497 7517.834,2929.853 7515.013,2929.745C7511.324,2929.745 7509.479,2928.334 7509.479,2925.513C7509.479,2923.669 7510.51,2921.661 7512.572,2919.491C7514.633,2917.321 7515.773,2915.368 7515.99,2913.632C7516.207,2912.33 7515.773,2911.245 7514.687,2910.377C7513.711,2909.617 7512.68,2909.346 7511.595,2909.563C7509.967,2909.78 7508.394,2910.919 7506.875,2912.981C7504.813,2915.802 7503.186,2919.762 7501.992,2924.862L7500.202,2924.862L7500.202,2902.401C7500.202,2900.882 7499.497,2899.96 7498.086,2899.634L7496.458,2899.634L7496.458,2897.681L7507.201,2897.681L7507.201,2899.634L7505.573,2899.634C7504.162,2899.634 7503.457,2900.448 7503.457,2902.076L7503.457,2914.934C7505.953,2909.725 7509.208,2907.121 7513.223,2907.121C7515.284,2907.121 7516.858,2907.664 7517.943,2908.749C7519.136,2909.834 7519.733,2911.136 7519.733,2912.655C7519.733,2915.259 7518.214,2917.863 7515.176,2920.468C7512.789,2922.529 7511.595,2924.265 7511.595,2925.676C7511.595,2927.521 7513.006,2928.28 7515.827,2927.955C7517.78,2927.738 7519.408,2926.761 7520.71,2925.025L7521.686,2925.676Z" style="fill:rgb(218,80,83);fill-rule:nonzero;"/>
    </g>
</svg>
